<?xml version="1.0" encoding="utf-8"?>
<!-- Generator: Adobe Illustrator 17.0.0, SVG Export Plug-In . SVG Version: 6.00 Build 0)  -->
<!DOCTYPE svg PUBLIC "-//W3C//DTD SVG 1.1//EN" "http://www.w3.org/Graphics/SVG/1.1/DTD/svg11.dtd">
<svg version="1.1" id="Capa_1" xmlns="http://www.w3.org/2000/svg" xmlns:xlink="http://www.w3.org/1999/xlink" x="0px" y="0px"
	 width="2272px" height="1872px" viewBox="0 0 2272 1872" enable-background="new 0 0 2272 1872" xml:space="preserve">
<g>
	<defs>
		<rect id="SVGID_1_" width="2272" height="1872"/>
	</defs>
	<clipPath id="SVGID_2_">
		<use xlink:href="#SVGID_1_"  overflow="visible"/>
	</clipPath>
	<rect clip-path="url(#SVGID_2_)" fill="#FFCB9A" width="2272" height="1872"/>
	<linearGradient id="SVGID_3_" gradientUnits="userSpaceOnUse" x1="234.6871" y1="370.5" x2="2093.092" y2="370.5">
		<stop  offset="0" style="stop-color:#FFF0A4;stop-opacity:0"/>
		<stop  offset="1" style="stop-color:#FFF0A4"/>
	</linearGradient>
	<polyline opacity="0.5" clip-path="url(#SVGID_2_)" fill="url(#SVGID_3_)" points="2087.912,323.493 0,0 -1.313,741 
		2087.912,470.773 	"/>
	<g clip-path="url(#SVGID_2_)">
		<circle fill="#FFF0A4" cx="46.354" cy="848.827" r="46.808"/>
		<circle fill="#FFF0A4" cx="111.508" cy="848.827" r="30.171"/>
		<circle fill="#FFF0A4" cx="101.535" cy="884.133" r="30.171"/>
		<rect x="64.989" y="873.996" fill="#FFF0A4" width="20.261" height="80.614"/>
		
			<rect x="46.062" y="866.803" transform="matrix(0.7071 -0.7071 0.7071 0.7071 -621.0778 297.9251)" fill="#FFF0A4" width="6.053" height="63.733"/>
		
			<rect x="93.222" y="892.369" transform="matrix(0.7071 0.7071 -0.7071 0.7071 675.3323 199.9967)" fill="#FFF0A4" width="6.053" height="45.656"/>
	</g>
	<g clip-path="url(#SVGID_2_)">
		<circle fill="#421C2E" cx="35.66" cy="848.827" r="46.808"/>
		<circle fill="#421C2E" cx="100.814" cy="848.827" r="30.171"/>
		<circle fill="#421C2E" cx="90.841" cy="884.133" r="30.171"/>
		<rect x="54.295" y="873.996" fill="#421C2E" width="20.261" height="80.614"/>
		
			<rect x="35.368" y="866.803" transform="matrix(0.7071 -0.7071 0.7071 0.7071 -624.2101 290.3631)" fill="#421C2E" width="6.053" height="63.733"/>
		
			<rect x="82.528" y="892.369" transform="matrix(0.7071 0.7071 -0.7071 0.7071 672.2 207.5587)" fill="#421C2E" width="6.053" height="45.656"/>
	</g>
	<circle clip-path="url(#SVGID_2_)" fill="#FFF0A4" cx="2226.759" cy="236.584" r="57.171"/>
	<ellipse clip-path="url(#SVGID_2_)" fill="#421C2E" cx="2240.927" cy="236.584" rx="43.002" ry="57.171"/>
	<circle opacity="0.2" clip-path="url(#SVGID_2_)" fill="#FFF0A4" cx="1136" cy="1208.846" r="738.074"/>
	<circle clip-path="url(#SVGID_2_)" fill="#FFF0A4" cx="2180.423" cy="457.607" r="221.022"/>
	<ellipse clip-path="url(#SVGID_2_)" fill="#421C2E" cx="2226.759" cy="457.607" rx="174.686" ry="221.022"/>
	<circle opacity="0.2" clip-path="url(#SVGID_2_)" fill="#FFF0A4" cx="1136" cy="1208.846" r="1014.336"/>
	<circle clip-path="url(#SVGID_2_)" fill="#FFF0A4" cx="1136" cy="1211.346" r="537.054"/>
	<g clip-path="url(#SVGID_2_)">
		<g>
			<circle fill="#FFF0A4" cx="299.424" cy="1039.427" r="46.808"/>
			<circle fill="#FFF0A4" cx="364.578" cy="1039.427" r="30.171"/>
			<circle fill="#FFF0A4" cx="354.605" cy="1074.733" r="30.171"/>
			<rect x="318.059" y="1064.597" fill="#FFF0A4" width="20.261" height="80.614"/>
			
				<rect x="299.132" y="1057.403" transform="matrix(0.7071 -0.7071 0.7071 0.7071 -681.7301 532.6984)" fill="#FFF0A4" width="6.053" height="63.733"/>
			
				<rect x="346.292" y="1082.969" transform="matrix(0.7071 0.7071 -0.7071 0.7071 884.2296 76.8747)" fill="#FFF0A4" width="6.053" height="45.656"/>
		</g>
		<g>
			<circle fill="#FFF0A4" cx="449.793" cy="1016.974" r="56.744"/>
			<circle fill="#FFF0A4" cx="370.809" cy="1016.974" r="36.575"/>
			<circle fill="#FFF0A4" cx="382.899" cy="1059.773" r="36.575"/>
			<rect x="402.641" y="1047.485" fill="#FFF0A4" width="24.562" height="97.726"/>
			
				<rect x="442.809" y="1038.765" transform="matrix(-0.7071 -0.7071 0.7071 -0.7071 0.3519 2154.9373)" fill="#FFF0A4" width="7.338" height="77.261"/>
			
				<rect x="385.639" y="1069.758" transform="matrix(-0.7071 0.7071 -0.7071 -0.7071 1440.5906 1598.1504)" fill="#FFF0A4" width="7.338" height="55.347"/>
		</g>
		<g>
			<circle fill="#421C2E" cx="289.808" cy="1039.427" r="46.808"/>
			<circle fill="#421C2E" cx="354.962" cy="1039.427" r="30.171"/>
			<circle fill="#421C2E" cx="344.989" cy="1074.733" r="30.171"/>
			<rect x="308.443" y="1064.597" fill="#421C2E" width="20.261" height="80.614"/>
			
				<rect x="289.516" y="1057.403" transform="matrix(0.7071 -0.7071 0.7071 0.7071 -684.5466 525.8987)" fill="#421C2E" width="6.053" height="63.733"/>
			
				<rect x="336.676" y="1082.969" transform="matrix(0.7071 0.7071 -0.7071 0.7071 881.4131 83.6744)" fill="#421C2E" width="6.053" height="45.656"/>
		</g>
		<g>
			<circle fill="#421C2E" cx="440.177" cy="1016.974" r="56.744"/>
			<circle fill="#421C2E" cx="361.193" cy="1016.974" r="36.575"/>
			<circle fill="#421C2E" cx="373.283" cy="1059.773" r="36.575"/>
			<rect x="393.025" y="1047.485" fill="#421C2E" width="24.562" height="97.726"/>
			
				<rect x="433.193" y="1038.765" transform="matrix(-0.7071 -0.7071 0.7071 -0.7071 -16.064 2148.1377)" fill="#421C2E" width="7.338" height="77.261"/>
			
				<rect x="376.022" y="1069.758" transform="matrix(-0.7071 0.7071 -0.7071 -0.7071 1424.1747 1604.9501)" fill="#421C2E" width="7.338" height="55.347"/>
		</g>
	</g>
	<path clip-path="url(#SVGID_2_)" fill="#FFF0A4" d="M0,945.466c0,0,141.718-26.214,194.145,65.534s124.515,142.72,232.646,116.506
		c108.131-26.214,261.459,34.012,311.287,83.84H0"/>
	<path clip-path="url(#SVGID_2_)" fill="#421C2E" d="M0,945.466c0,0,115.21-26.214,157.831,65.534s101.225,142.72,189.131,116.506
		c87.906-26.214,212.555,34.012,253.063,83.84H0"/>
	<rect y="1208.846" clip-path="url(#SVGID_2_)" fill="#F6A757" width="2272" height="663.154"/>
	<rect y="1208.846" opacity="0.2" clip-path="url(#SVGID_2_)" fill="#FFF0A4" width="2272" height="360.036"/>
	<rect y="1208.846" opacity="0.2" clip-path="url(#SVGID_2_)" fill="#FFF0A4" width="2272" height="142.023"/>
	<g clip-path="url(#SVGID_2_)">
		<path fill="#421C2E" d="M1020.287,1155.194c27.813,32.816,69.327,53.653,115.713,53.653s87.9-20.837,115.713-53.653H1020.287z"/>
		<rect x="1133.279" y="1014.462" fill="#421C2E" width="5.442" height="180.12"/>
		<polyline fill="#421C2E" points="1133.528,1032.474 1030.88,1126.65 1120.45,1145.211 		"/>
		<polyline fill="#421C2E" points="1138.472,1032.474 1241.12,1132.536 1151.55,1147.544 		"/>
		<rect x="1120.45" y="1028.198" fill="#421C2E" width="31.1" height="8.552"/>
		<path fill="#421C2E" d="M1133.279,1014.591c0,0,10.885-8.941,22.936-2.332c12.051,6.609,32.345-2.434,32.345-2.434
			S1161.657,1037.528,1133.279,1014.591z"/>
	</g>
	<rect x="1978.559" y="568.221" clip-path="url(#SVGID_2_)" fill="#FFF0A4" width="293.472" height="772.779"/>
	<rect x="2070.557" y="568.221" clip-path="url(#SVGID_2_)" fill="#421C2E" width="201.474" height="772.779"/>
	<path clip-path="url(#SVGID_2_)" fill="#FFF0A4" d="M1168.051,1883.914c0,0,192.791-267.027,414.813-267.027
		s109.146-408.041,689.136-408.041V1872L1168.051,1883.914z"/>
	<path clip-path="url(#SVGID_2_)" fill="#421C2E" d="M1356.051,1883.914c0,0,159.959-267.027,344.171-267.027
		s90.558-408.041,571.778-408.041V1872L1356.051,1883.914z"/>
	<polyline opacity="0.5" clip-path="url(#SVGID_2_)" fill="#F6A757" points="1978.559,568.221 2272.031,727.646 2272.031,866.293 
		1978.559,727.646 	"/>
	<polyline opacity="0.5" clip-path="url(#SVGID_2_)" fill="#F6A757" points="1978.559,866.753 2272.031,1026.178 2272.031,1164.825 
		1978.559,1026.178 	"/>
	<rect x="1903.176" y="457.607" clip-path="url(#SVGID_2_)" fill="#FFF0A4" width="444.239" height="110.614"/>
	<rect x="2013.431" y="457.607" clip-path="url(#SVGID_2_)" fill="#421C2E" width="333.984" height="110.614"/>
	<g clip-path="url(#SVGID_2_)">
		<rect x="3.68" y="1464.443" fill="#FFF0A4" width="103.309" height="411.041"/>
		
			<rect x="-92.827" y="1427.764" transform="matrix(0.7071 -0.7071 0.7071 0.7071 -1147.1434 411.0464)" fill="#FFF0A4" width="30.864" height="324.966"/>
		
			<rect x="147.637" y="1558.121" transform="matrix(0.7071 0.7071 -0.7071 0.7071 1231.8243 375.1477)" fill="#FFF0A4" width="30.864" height="232.795"/>
		<circle fill="#FFF0A4" cx="-91.337" cy="1336.107" r="238.668"/>
		<circle fill="#FFF0A4" cx="240.875" cy="1336.107" r="153.837"/>
		<circle fill="#FFF0A4" cx="190.022" cy="1516.125" r="153.837"/>
	</g>
	<g clip-path="url(#SVGID_2_)">
		<rect x="223.448" y="1532.119" fill="#FFF0A4" width="585.059" height="343.365"/>
		<rect x="172.39" y="1532.119" fill="#421C2E" width="522.106" height="343.365"/>
		<polygon fill="#421C2E" points="172.39,1532.119 423.632,1297 694.495,1532.119 321.589,1792.656 		"/>
		<polygon fill="#FFF0A4" points="423.632,1297 527.337,1297 808.507,1532.119 694.495,1532.119 		"/>
		<g>
			<rect x="223.448" y="1621.279" fill="#FFF0A4" width="127.29" height="127.29"/>
			<rect x="280.461" y="1577.193" fill="#421C2E" width="13.265" height="215.463"/>
			<rect x="179.362" y="1678.292" fill="#421C2E" width="215.463" height="13.265"/>
		</g>
		<g>
			<rect x="477.529" y="1621.279" fill="#FFF0A4" width="127.29" height="127.29"/>
			<rect x="534.541" y="1577.193" fill="#421C2E" width="13.265" height="215.463"/>
			<rect x="433.443" y="1678.292" fill="#421C2E" width="215.463" height="13.265"/>
		</g>
		<rect x="650.751" y="1318.902" fill="#FFF0A4" width="108.128" height="238.098"/>
		<rect x="586.368" y="1318.902" fill="#421C2E" width="108.128" height="238.098"/>
	</g>
	<g clip-path="url(#SVGID_2_)">
		<rect x="-33.818" y="1464.443" fill="#421C2E" width="103.309" height="411.041"/>
		
			<rect x="-130.325" y="1427.764" transform="matrix(0.7071 -0.7071 0.7071 0.7071 -1158.1262 384.5316)" fill="#421C2E" width="30.864" height="324.966"/>
		
			<rect x="110.139" y="1558.121" transform="matrix(0.7071 0.7071 -0.7071 0.7071 1220.8416 401.6624)" fill="#421C2E" width="30.864" height="232.795"/>
		<circle fill="#F6A757" cx="-128.834" cy="1336.107" r="238.668"/>
		<circle fill="#F6A757" cx="203.377" cy="1336.107" r="153.837"/>
		<circle fill="#F6A757" cx="152.525" cy="1516.125" r="153.837"/>
	</g>
	<path clip-path="url(#SVGID_2_)" fill="#FFFFFF" d="M-151-39C-257.806,17.451-12.352,248.529,26.68,87.027
		c16.047,9.416,13.489,25.162,23.95,37.845c27.063,32.812,79.568,46.625,121.553,49.04c40.314,2.319,50.788-3.877,76.22,27.474
		c6.874,8.473,13.511,13.808,21.609,19.956c-2.516,0.044-10.956,2.152-13.326,2.27c3.061,48.061,83.729,127.245,133.127,122.372
		c7.839-59.075,85.563-58.837,128.866-75.527c36.542,82.597,167.56,95.819,179.794-5.245
		c19.972,50.441,146.875,64.531,166.236,12.628c-2.406-1.044-8.201-3.18-9.866-4.606c17.619,15.091,38.071,27.749,60.814,32.467
		c8.256-55.162-31.003-87.324-29.497-135.948c38.625-0.862,114.945,62.63,92.968-27.196
		c21.213,30.371,102.307,56.782,125.473,21.865c34.241,12.941,21.156,32.953,28.014,60.265
		c10.464,41.674,47.628,78.475,94.651,60.791c-1.268-5.142-0.029-11.66-0.695-16.942c42.287-23.23,42.718,35.781,61.035,59.767
		c-36.489,34.946,5.518,82.661,37.587,100.904c8.431,4.796,16.037,14.055,26.656,15.253c20.56,2.32,13.55-11.099,24.901-12.713
		c53.312-7.581,91.492,35.832,139.519,29.925c-2.779-27.741-14.034-39.436-2.536-62.944c4.283-8.755,27.495-24.001,35.189-32.931
		c12.168-14.122,18.902-6.64,24.286-25.993c7.728-27.778-12.918-46.71-29.647-63.646c22.948,2.769,41.787,17.019,60.344,29.534
		c1.203-46,119.493-74.168,152.3-72.643c36.575,1.7,38.195,0.88,69.778-12.142c14.399-5.937,26.281-16.76,42.54-16.285
		c45.125,1.319,80.674,62.778,128.265,51.673c63.445-14.804,21.829-62.505,34.212-97.965c16.051,1.781,39.599,10.892,55.331,6.365
		c16.219-4.668,27.447-28.112,42.726-34.086c54.536-21.324,84.45,13.196,132.036-32.371
		c63.904-61.192,86.997-148.939,109.12-229.543c-38.282-60.98-152.364-93.181-215.148-114.258
		c-121.208-40.69-246.518-46.762-372.223-62.633c-97.168-12.268-192.477-6.635-289.88-10.611
		c-45.519-1.858-87.775-14.401-132.901-19.303c-91.332-9.921-184.924-10.978-275.498-25.559
		c-74.211-11.947-158.05-29.866-233.428-26.385c-65.444,3.022-127.094,10.229-193.474,7.944C606.523-383.87,542.569-392.698,493-379
		"/>
</g>
</svg>
